<?xml version="1.0" encoding="utf-8"?>
<svg viewBox="0 0 500 500" xmlns="http://www.w3.org/2000/svg">
  <path d="M 137.827 384.1 L 214.409 384.1 C 216.456 384.1 216.941 382.927 215.494 381.481 L 204.265 370.252 C 202.818 368.804 202.818 366.459 204.265 365.011 L 251.686 317.59 L 299.108 365.011 C 300.556 366.459 300.556 368.804 299.108 370.252 L 287.879 381.481 C 286.432 382.929 286.918 384.1 288.963 384.1 L 365.546 384.1 C 367.593 384.1 369.252 382.441 369.252 380.395 L 369.252 303.813 C 369.252 301.766 368.078 301.28 366.632 302.728 L 355.403 313.957 C 353.955 315.404 351.61 315.404 350.162 313.957 L 302.743 266.535 L 350.164 219.114 C 351.611 217.666 353.958 217.666 355.405 219.114 L 366.634 230.343 C 368.082 231.79 369.254 231.303 369.254 229.258 L 369.254 152.675 C 369.254 150.629 367.595 148.969 365.548 148.969 L 288.966 148.969 C 286.919 148.969 286.434 150.143 287.881 151.589 L 299.11 162.818 C 300.557 164.266 300.557 166.612 299.11 168.059 L 251.688 215.48 L 204.265 168.059 C 202.818 166.612 202.818 164.265 204.265 162.818 L 215.494 151.589 C 216.941 150.142 216.455 148.969 214.409 148.969 L 137.827 148.969 C 135.781 148.969 134.121 150.629 134.121 152.675 L 134.121 229.258 C 134.121 231.304 135.295 231.79 136.741 230.342 L 147.97 219.113 C 149.417 217.666 151.763 217.666 153.211 219.113 L 200.633 266.535 L 153.212 313.957 C 151.765 315.404 149.419 315.404 147.971 313.957 L 136.743 302.727 C 135.295 301.28 134.123 301.767 134.123 303.812 L 134.123 380.395 C 134.121 382.441 135.781 384.1 137.827 384.1 Z" style="fill: rgb(219, 219, 219);" transform="matrix(0.707107, 0.707107, -0.707107, 0.707107, 262.185914, -99.90379)"/>
  <g transform="matrix(0.282621, -0.282621, 0.282621, 0.282621, 109.308838, 289.662231)" style="visibility: hidden;">
    <path d="m289.067 233.141-23.757-23.757 120.02-120.02c1.258-1.258 2.749-2.261 4.389-2.953l7.893-3.329c3.512-1.481 6.253-4.35 7.572-7.926l2.255-6.112c.689-1.868 1.776-3.565 3.184-4.973l59.15-59.151c6.56-6.56 17.197-6.56 23.757 0 6.56 6.56 6.56 17.197 0 23.757z" fill="#c4573a"/>
    <circle cx="261.492" cy="236.958" fill="#dd7f66" r="28.436"/>
    <path d="m261.492 236.958c-30.391-30.391-79.664-30.391-110.055 0l-3.066 18.601-21.458-2.458-74.447 49.003c-11.323 7.453-12.952 23.423-3.366 33.009l18.094 18.094c3.089 3.089 7.395 4.642 11.745 4.235 9.096-.851 16.751 6.726 15.992 15.83l-.025.299c-.358 4.302 1.195 8.543 4.248 11.596l7.066 7.066 57.119 57.119c9.586 9.586 25.555 7.957 33.009-3.366l49.003-74.447-2.972-20.678 19.114-3.846c30.39-30.392 30.39-79.666-.001-110.057z" fill="#fed402"/>
    <path d="m261.492 236.958c-19.03-19.03-45.462-26.141-70.027-21.339 14.666 2.867 28.666 9.978 40.027 21.339 30.391 30.391 30.391 79.664 0 110.055l-65.146 98.971c-.852 1.295-1.82 2.456-2.873 3.495 9.6 9.438 25.454 7.776 32.873-3.495l49.003-74.447-2.02-22.123 18.163-2.401c30.391-30.39 30.391-79.664 0-110.055z" fill="#fac600"/>
    <path d="m245.35 371.538 16.142-24.525-110.055-110.055-24.524 16.143z" fill="#a74b30"/>
    <g fill="#fac600">
      <path d="m172.707 383.47-37.625 37.625 10.607 10.607 37.625-37.625c2.929-2.929 2.929-7.677 0-10.606-2.928-2.929-7.676-2.93-10.607-.001z"/>
      <path d="m113.758 337.09c-2.929-2.928-7.677-2.929-10.607 0l-20.489 20.489c5.37.867 9.774 4.665 11.51 9.703l19.586-19.586c2.929-2.929 2.929-7.677 0-10.606z"/>
      <path d="m132.527 395.17c2.929-2.929 2.929-7.677 0-10.606-2.93-2.929-7.678-2.929-10.607 0l-11.685 11.685 10.607 10.607z"/>
    </g>
  </g>
  <g transform="matrix(0.209346, -0.340475, 0.340475, 0.209346, 178.425888, 317.148193)" style="visibility: hidden;">
    <path d="m289.067 233.141-23.757-23.757 120.02-120.02c1.258-1.258 2.749-2.261 4.389-2.953l7.893-3.329c3.512-1.481 6.253-4.35 7.572-7.926l2.255-6.112c.689-1.868 1.776-3.565 3.184-4.973l59.15-59.151c6.56-6.56 17.197-6.56 23.757 0 6.56 6.56 6.56 17.197 0 23.757z" fill="#c4573a"/>
    <circle cx="261.492" cy="236.958" fill="#dd7f66" r="28.436"/>
    <path d="m261.492 236.958c-30.391-30.391-79.664-30.391-110.055 0l-3.066 18.601-21.458-2.458-74.447 49.003c-11.323 7.453-12.952 23.423-3.366 33.009l18.094 18.094c3.089 3.089 7.395 4.642 11.745 4.235 9.096-.851 16.751 6.726 15.992 15.83l-.025.299c-.358 4.302 1.195 8.543 4.248 11.596l7.066 7.066 57.119 57.119c9.586 9.586 25.555 7.957 33.009-3.366l49.003-74.447-2.972-20.678 19.114-3.846c30.39-30.392 30.39-79.666-.001-110.057z" fill="#fed402"/>
    <path d="m261.492 236.958c-19.03-19.03-45.462-26.141-70.027-21.339 14.666 2.867 28.666 9.978 40.027 21.339 30.391 30.391 30.391 79.664 0 110.055l-65.146 98.971c-.852 1.295-1.82 2.456-2.873 3.495 9.6 9.438 25.454 7.776 32.873-3.495l49.003-74.447-2.02-22.123 18.163-2.401c30.391-30.39 30.391-79.664 0-110.055z" fill="#fac600"/>
    <path d="m245.35 371.538 16.142-24.525-110.055-110.055-24.524 16.143z" fill="#a74b30"/>
    <g fill="#fac600">
      <path d="m172.707 383.47-37.625 37.625 10.607 10.607 37.625-37.625c2.929-2.929 2.929-7.677 0-10.606-2.928-2.929-7.676-2.93-10.607-.001z"/>
      <path d="m113.758 337.09c-2.929-2.928-7.677-2.929-10.607 0l-20.489 20.489c5.37.867 9.774 4.665 11.51 9.703l19.586-19.586c2.929-2.929 2.929-7.677 0-10.606z"/>
      <path d="m132.527 395.17c2.929-2.929 2.929-7.677 0-10.606-2.93-2.929-7.678-2.929-10.607 0l-11.685 11.685 10.607 10.607z"/>
    </g>
  </g>
  <g transform="matrix(0.341119, -0.208295, 0.208295, 0.341119, 44.494923, 254.760178)" style="visibility: hidden;">
    <path d="m289.067 233.141-23.757-23.757 120.02-120.02c1.258-1.258 2.749-2.261 4.389-2.953l7.893-3.329c3.512-1.481 6.253-4.35 7.572-7.926l2.255-6.112c.689-1.868 1.776-3.565 3.184-4.973l59.15-59.151c6.56-6.56 17.197-6.56 23.757 0 6.56 6.56 6.56 17.197 0 23.757z" fill="#c4573a"/>
    <circle cx="261.492" cy="236.958" fill="#dd7f66" r="28.436"/>
    <path d="m261.492 236.958c-30.391-30.391-79.664-30.391-110.055 0l-3.066 18.601-21.458-2.458-74.447 49.003c-11.323 7.453-12.952 23.423-3.366 33.009l18.094 18.094c3.089 3.089 7.395 4.642 11.745 4.235 9.096-.851 16.751 6.726 15.992 15.83l-.025.299c-.358 4.302 1.195 8.543 4.248 11.596l7.066 7.066 57.119 57.119c9.586 9.586 25.555 7.957 33.009-3.366l49.003-74.447-2.972-20.678 19.114-3.846c30.39-30.392 30.39-79.666-.001-110.057z" fill="#fed402"/>
    <path d="m261.492 236.958c-19.03-19.03-45.462-26.141-70.027-21.339 14.666 2.867 28.666 9.978 40.027 21.339 30.391 30.391 30.391 79.664 0 110.055l-65.146 98.971c-.852 1.295-1.82 2.456-2.873 3.495 9.6 9.438 25.454 7.776 32.873-3.495l49.003-74.447-2.02-22.123 18.163-2.401c30.391-30.39 30.391-79.664 0-110.055z" fill="#fac600"/>
    <path d="m245.35 371.538 16.142-24.525-110.055-110.055-24.524 16.143z" fill="#a74b30"/>
    <g fill="#fac600">
      <path d="m172.707 383.47-37.625 37.625 10.607 10.607 37.625-37.625c2.929-2.929 2.929-7.677 0-10.606-2.928-2.929-7.676-2.93-10.607-.001z"/>
      <path d="m113.758 337.09c-2.929-2.928-7.677-2.929-10.607 0l-20.489 20.489c5.37.867 9.774 4.665 11.51 9.703l19.586-19.586c2.929-2.929 2.929-7.677 0-10.606z"/>
      <path d="m132.527 395.17c2.929-2.929 2.929-7.677 0-10.606-2.93-2.929-7.678-2.929-10.607 0l-11.685 11.685 10.607 10.607z"/>
    </g>
  </g>
  <path style="stroke: rgb(0, 0, 0); fill: none;" d="M 349.683 168.725" transform="matrix(0.707107, 0.707107, -0.707107, 0.707107, 221.726379, -197.84482)"/>
  <line style="stroke: rgb(151, 204, 223); stroke-miterlimit: 1; stroke-width: 23px;" x1="340.009" y1="211.248" x2="383.69" y2="254.93" transform="matrix(0.707107, 0.707107, -0.707107, 0.707107, 270.802076, -187.59605)"/>
  <line style="stroke: rgb(151, 204, 223); stroke-miterlimit: 1; stroke-width: 23px;" x1="183.366" y1="116.721" x2="226.665" y2="160.02" transform="matrix(0.707107, 0.707107, -0.707107, 0.707107, 157.890369, -104.440065)"/>
  <line style="stroke: rgb(151, 204, 223); stroke-miterlimit: 1; stroke-width: 23px;" x1="100.198" y1="183.44" x2="143.536" y2="226.778" transform="matrix(0.707107, 0.707107, -0.707107, 0.707107, 180.727983, -26.097944)"/>
  <path style="fill: rgb(216, 216, 216); stroke: rgb(0, 0, 0);" d="M 454.412 188.083" transform="matrix(0.707107, 0.707107, -0.707107, 0.707107, 266.088949, -266.229565)"/>
  <path style="fill: rgb(216, 216, 216); stroke: rgb(0, 0, 0);" d="M 385.362 255.174" transform="matrix(0.707107, 0.707107, -0.707107, 0.707107, 293.305179, -197.75335)"/>
  <g transform="matrix(0.244616, 0.244616, -0.244616, 0.244616, 247.086044, 107.032478)" style=""/>
  <g transform="matrix(0.244616, 0.244616, -0.244616, 0.244616, 247.086044, 107.032478)" style=""/>
  <g transform="matrix(0.244616, 0.244616, -0.244616, 0.244616, 247.086044, 107.032478)" style=""/>
  <g transform="matrix(0.244616, 0.244616, -0.244616, 0.244616, 247.086044, 107.032478)" style=""/>
  <g transform="matrix(0.244616, 0.244616, -0.244616, 0.244616, 247.086044, 107.032478)" style=""/>
  <g transform="matrix(0.244616, 0.244616, -0.244616, 0.244616, 247.086044, 107.032478)" style=""/>
  <g transform="matrix(0.244616, 0.244616, -0.244616, 0.244616, 247.086044, 107.032478)" style=""/>
  <g transform="matrix(0.244616, 0.244616, -0.244616, 0.244616, 247.086044, 107.032478)" style=""/>
  <g transform="matrix(0.244616, 0.244616, -0.244616, 0.244616, 247.086044, 107.032478)" style=""/>
  <g transform="matrix(0.244616, 0.244616, -0.244616, 0.244616, 247.086044, 107.032478)" style=""/>
  <g transform="matrix(0.244616, 0.244616, -0.244616, 0.244616, 247.086044, 107.032478)" style=""/>
  <g transform="matrix(0.244616, 0.244616, -0.244616, 0.244616, 247.086044, 107.032478)" style=""/>
  <g transform="matrix(0.244616, 0.244616, -0.244616, 0.244616, 247.086044, 107.032478)" style=""/>
  <g transform="matrix(0.244616, 0.244616, -0.244616, 0.244616, 247.086044, 107.032478)" style=""/>
  <g transform="matrix(0.244616, 0.244616, -0.244616, 0.244616, 247.086044, 107.032478)" style=""/>
  <g style="" transform="matrix(0.840653, 0, 0, 0.840653, 42.495403, 52.418648)">
    <g transform="matrix(3.411873, 0, 0, 3.411873, 152.996872, 152.023239)" style="">
      <polygon style="fill:#434C6D;" points="29,58 3,45 3,13 29,26 &#9;"/>
      <polygon style="fill:#556080;" points="29,58 55,45 55,13 29,26 &#9;"/>
      <polygon style="fill:#7383BF;" points="3,13 28,0 55,13 29,26 &#9;"/>
    </g>
    <g transform="matrix(2.149921, 0, 0, 2.149921, 90.671509, 222.54187)" style="">
      <polygon style="fill:#434C6D;" points="29,58 3,45 3,13 29,26 &#9;"/>
      <polygon style="fill:#556080;" points="29,58 55,45 55,13 29,26 &#9;"/>
      <polygon style="fill:#7383BF;" points="3,13 28,0 55,13 29,26 &#9;"/>
    </g>
    <g transform="matrix(2.149921, 0, 0, 2.149921, 257.663544, 248.496643)" style="">
      <polygon style="fill:#434C6D;" points="29,58 3,45 3,13 29,26 &#9;"/>
      <polygon style="fill:#556080;" points="29,58 55,45 55,13 29,26 &#9;"/>
      <polygon style="fill:#7383BF;" points="3,13 28,0 55,13 29,26 &#9;"/>
    </g>
  </g>
  <g transform="matrix(3.935359, 0, 0, 3.935359, 135.468536, 137.821579)" style=""/>
  <g transform="matrix(3.935359, 0, 0, 3.935359, 135.468536, 137.821579)" style=""/>
  <g transform="matrix(3.935359, 0, 0, 3.935359, 135.468536, 137.821579)" style=""/>
  <g transform="matrix(3.935359, 0, 0, 3.935359, 135.468536, 137.821579)" style=""/>
  <g transform="matrix(3.935359, 0, 0, 3.935359, 135.468536, 137.821579)" style=""/>
  <g transform="matrix(3.935359, 0, 0, 3.935359, 135.468536, 137.821579)" style=""/>
  <g transform="matrix(3.935359, 0, 0, 3.935359, 135.468536, 137.821579)" style=""/>
  <g transform="matrix(3.935359, 0, 0, 3.935359, 135.468536, 137.821579)" style=""/>
  <g transform="matrix(3.935359, 0, 0, 3.935359, 135.468536, 137.821579)" style=""/>
  <g transform="matrix(3.935359, 0, 0, 3.935359, 135.468536, 137.821579)" style=""/>
  <g transform="matrix(3.935359, 0, 0, 3.935359, 135.468536, 137.821579)" style=""/>
  <g transform="matrix(3.935359, 0, 0, 3.935359, 135.468536, 137.821579)" style=""/>
  <g transform="matrix(3.935359, 0, 0, 3.935359, 135.468536, 137.821579)" style=""/>
  <g transform="matrix(3.935359, 0, 0, 3.935359, 135.468536, 137.821579)" style=""/>
  <g transform="matrix(3.935359, 0, 0, 3.935359, 135.468536, 137.821579)" style=""/>
  <line style="stroke: rgb(151, 204, 223); stroke-miterlimit: 1; stroke-width: 23px;" x1="296.143" y1="139.042" x2="339.442" y2="182.341" transform="matrix(0.707107, 0.707107, -0.707107, 0.707107, 206.70532, -177.647776)"/>
</svg>