<?xml version="1.0" encoding="utf-8"?>
<svg xmlns="http://www.w3.org/2000/svg">
  <path d="M 345.224 201.347 L 206.278 62.401 C 205.014 61.128 203.32 60.429 201.527 60.429 C 197.816 60.429 194.804 63.441 194.804 67.152 L 194.804 268.848 C 194.804 272.559 197.816 275.571 201.527 275.571 C 203.347 275.571 205.113 274.818 206.368 273.518 L 264.896 212.821 L 340.473 212.821 C 344.184 212.821 347.196 209.809 347.196 206.098 C 347.196 204.305 346.497 202.611 345.224 201.347 Z" style="fill: rgb(115, 131, 191);" transform="matrix(0.894125, -0.447818, 0.447818, 0.894125, -46.541225, 139.145677)"/>
  <g transform="matrix(1, 0, 0, 1, 1034.711182, 95.824684)"/>
  <g transform="matrix(1, 0, 0, 1, 1034.711182, 95.824684)"/>
  <g transform="matrix(1, 0, 0, 1, 1034.711182, 95.824684)"/>
  <g transform="matrix(1, 0, 0, 1, 1034.711182, 95.824684)"/>
  <g transform="matrix(1, 0, 0, 1, 1034.711182, 95.824684)"/>
  <g transform="matrix(1, 0, 0, 1, 1034.711182, 95.824684)"/>
  <g transform="matrix(1, 0, 0, 1, 1034.711182, 95.824684)"/>
  <g transform="matrix(1, 0, 0, 1, 1034.711182, 95.824684)"/>
  <g transform="matrix(1, 0, 0, 1, 1034.711182, 95.824684)"/>
  <g transform="matrix(1, 0, 0, 1, 1034.711182, 95.824684)"/>
  <g transform="matrix(1, 0, 0, 1, 1034.711182, 95.824684)"/>
  <g transform="matrix(1, 0, 0, 1, 1034.711182, 95.824684)"/>
  <g transform="matrix(1, 0, 0, 1, 1034.711182, 95.824684)"/>
  <g transform="matrix(1, 0, 0, 1, 1034.711182, 95.824684)"/>
  <g transform="matrix(1, 0, 0, 1, 1034.711182, 95.824684)"/>
  <g transform="matrix(0.355402, 0, 0, 0.355402, 148.247192, 61.913712)" style="">
    <g>
      <path d="M600.195,3.203c-27.612-27.612-229.2,129.21-343.928,243.94c-27.811,27.809-47.495,50.998-61.13,70.498 c18.725,5.797,36.292,16.375,51.568,31.655c6.546,6.546,12.677,13.948,18.225,21.996c8.543,12.401,14.531,25.428,18.065,38.877 c20.061-13.681,44.126-33.916,73.261-63.042C470.985,232.402,627.807,30.815,600.195,3.203z" style="stroke-width: 14.0686px; fill: rgb(192, 204, 231);"/>
      <path d="M93.801,364.184c-105.658,61.408-10.941,144.218-85.2,218.472c53.607,53.611,138.564,26.071,185.785-21.154 c43.828-43.819,79.004-106.442,38.846-164.758C199.203,347.336,145.419,334.186,93.801,364.184z" style="stroke-width: 14.0686px; fill: rgb(192, 204, 231);"/>
    </g>
  </g>
</svg>