<?xml version="1.0" encoding="utf-8"?>
<svg viewBox="13.644 110.378 152.392 215.142" width="383px" height="215.142" xmlns="http://www.w3.org/2000/svg">
  <g style="" transform="matrix(0.459206, 0, 0, 0.459206, -15.518762, 133.425476)">
    <g transform="matrix(3.411873, 0, 0, 3.411873, 152.996872, 152.023239)" style="">
      <polygon style="fill:#434C6D;" points="29,58 3,45 3,13 29,26 &#9;"/>
      <polygon style="fill:#556080;" points="29,58 55,45 55,13 29,26 &#9;"/>
      <polygon style="fill:#7383BF;" points="3,13 28,0 55,13 29,26 &#9;"/>
    </g>
    <g transform="matrix(2.149921, 0, 0, 2.149921, 90.671509, 222.54187)" style="">
      <polygon style="fill:#434C6D;" points="29,58 3,45 3,13 29,26 &#9;"/>
      <polygon style="fill:#556080;" points="29,58 55,45 55,13 29,26 &#9;"/>
      <polygon style="fill:#7383BF;" points="3,13 28,0 55,13 29,26 &#9;"/>
    </g>
    <g transform="matrix(2.149921, 0, 0, 2.149921, 257.663544, 248.496643)" style="">
      <polygon style="fill:#434C6D;" points="29,58 3,45 3,13 29,26 &#9;"/>
      <polygon style="fill:#556080;" points="29,58 55,45 55,13 29,26 &#9;"/>
      <polygon style="fill:#7383BF;" points="3,13 28,0 55,13 29,26 &#9;"/>
    </g>
  </g>
  <g transform="matrix(0.194138, 0, 0, 0.194138, 35.786751, 164.69339)" style="">
    <g>
      <path d="M600.195,3.203c-27.612-27.612-229.2,129.21-343.928,243.94c-27.811,27.809-47.495,50.998-61.13,70.498 c18.725,5.797,36.292,16.375,51.568,31.655c6.546,6.546,12.677,13.948,18.225,21.996c8.543,12.401,14.531,25.428,18.065,38.877 c20.061-13.681,44.126-33.916,73.261-63.042C470.985,232.402,627.807,30.815,600.195,3.203z" style="stroke-width: 14.0686px; fill: rgb(192, 204, 231);"/>
      <path d="M93.801,364.184c-105.658,61.408-10.941,144.218-85.2,218.472c53.607,53.611,138.564,26.071,185.785-21.154 c43.828-43.819,79.004-106.442,38.846-164.758C199.203,347.336,145.419,334.186,93.801,364.184z" style="stroke-width: 14.0686px; fill: rgb(192, 204, 231);"/>
    </g>
  </g>
  <g transform="matrix(1, 0, 0, 1, -439.182104, -116.37792)"/>
  <g transform="matrix(1, 0, 0, 1, -439.182104, -116.37792)"/>
  <g transform="matrix(1, 0, 0, 1, -439.182104, -116.37792)"/>
  <g transform="matrix(1, 0, 0, 1, -439.182104, -116.37792)"/>
  <g transform="matrix(1, 0, 0, 1, -439.182104, -116.37792)"/>
  <g transform="matrix(1, 0, 0, 1, -439.182104, -116.37792)"/>
  <g transform="matrix(1, 0, 0, 1, -439.182104, -116.37792)"/>
  <g transform="matrix(1, 0, 0, 1, -439.182104, -116.37792)"/>
  <g transform="matrix(1, 0, 0, 1, -439.182104, -116.37792)"/>
  <g transform="matrix(1, 0, 0, 1, -439.182104, -116.37792)"/>
  <g transform="matrix(1, 0, 0, 1, -439.182104, -116.37792)"/>
  <g transform="matrix(1, 0, 0, 1, -439.182104, -116.37792)"/>
  <g transform="matrix(1, 0, 0, 1, -439.182104, -116.37792)"/>
  <g transform="matrix(1, 0, 0, 1, -439.182104, -116.37792)"/>
  <g transform="matrix(1, 0, 0, 1, -439.182104, -116.37792)"/>
  <line style="stroke: rgb(151, 204, 223); stroke-miterlimit: 1; stroke-width: 10px;" x1="159.16" y1="220.115" x2="183.021" y2="243.977" transform="matrix(0.707107, 0.707107, -0.707107, 0.707107, 214.192551, -53.014551)"/>
  <line style="stroke: rgb(151, 204, 223); stroke-miterlimit: 1; stroke-width: 10px;" x1="73.594" y1="168.48" x2="97.246" y2="192.132" transform="matrix(0.707107, 0.707107, -0.707107, 0.707107, 152.514534, -7.590658)"/>
  <line style="stroke: rgb(151, 204, 223); stroke-miterlimit: 1; stroke-width: 10px;" x1="28.164" y1="204.925" x2="51.837" y2="228.598" transform="matrix(0.707107, 0.707107, -0.707107, 0.707107, 164.989406, 35.20335)"/>
  <line style="stroke: rgb(151, 204, 223); stroke-miterlimit: 1; stroke-width: 10px;" x1="135.199" y1="180.673" x2="158.851" y2="204.325" transform="matrix(0.707107, 0.707107, -0.707107, 0.707107, 179.179975, -47.580724)"/>
</svg>