<?xml version="1.0" encoding="utf-8"?>
<svg viewBox="13.644 110.378 152.392 215.142" width="152.392" height="215.142" xmlns="http://www.w3.org/2000/svg">
  <g style="" transform="matrix(0.840653, 0, 0, 0.840653, -160.643555, 52.332264)">
    <polygon style="fill: rgb(67, 109, 83);" points="251.941 349.912 163.232 305.558 163.232 196.378 251.941 240.732"/>
    <polygon style="fill: rgb(85, 128, 86);" points="251.941 349.912 340.65 305.558 340.65 196.378 251.941 240.732"/>
    <polygon style="fill: rgb(129, 191, 115);" points="163.232 196.378 248.529 152.023 340.65 196.378 251.941 240.732"/>
    <polygon style="fill: rgb(67, 109, 83);" points="153.019 347.237 97.121 319.288 97.121 250.491 153.019 278.44"/>
    <polygon style="fill: rgb(85, 128, 86);" points="153.019 347.237 208.917 319.288 208.917 250.491 153.019 278.44"/>
    <polygon style="fill: rgb(129, 191, 115);" points="97.121 250.491 150.869 222.542 208.917 250.491 153.019 278.44"/>
    <polygon style="fill: rgb(67, 109, 83);" points="320.011 373.192 264.113 345.243 264.113 276.446 320.011 304.395"/>
    <polygon style="fill: rgb(85, 128, 86);" points="320.011 373.192 375.909 345.243 375.909 276.446 320.011 304.395"/>
    <polygon style="fill: rgb(129, 191, 115);" points="264.113 276.446 317.861 248.497 375.909 276.446 320.011 304.395"/>
  </g>
  <g transform="matrix(0.355402, 0, 0, 0.355402, -71.15419, 113.827492)" style="">
    <g>
      <path d="M600.195,3.203c-27.612-27.612-229.2,129.21-343.928,243.94c-27.811,27.809-47.495,50.998-61.13,70.498 c18.725,5.797,36.292,16.375,51.568,31.655c6.546,6.546,12.677,13.948,18.225,21.996c8.543,12.401,14.531,25.428,18.065,38.877 c20.061-13.681,44.126-33.916,73.261-63.042C470.985,232.402,627.807,30.815,600.195,3.203z" style="fill: rgb(41, 55, 107); stroke-width: 14.0686px;"/>
      <path d="M93.801,364.184c-105.658,61.408-10.941,144.218-85.2,218.472c53.607,53.611,138.564,26.071,185.785-21.154 c43.828-43.819,79.004-106.442,38.846-164.758C199.203,347.336,145.419,334.186,93.801,364.184z" style="fill: rgb(41, 55, 107); stroke-width: 14.0686px;"/>
    </g>
  </g>
  <g transform="matrix(1, 0, 0, 1, -439.182104, -116.37792)"/>
  <g transform="matrix(1, 0, 0, 1, -439.182104, -116.37792)"/>
  <g transform="matrix(1, 0, 0, 1, -439.182104, -116.37792)"/>
  <g transform="matrix(1, 0, 0, 1, -439.182104, -116.37792)"/>
  <g transform="matrix(1, 0, 0, 1, -439.182104, -116.37792)"/>
  <g transform="matrix(1, 0, 0, 1, -439.182104, -116.37792)"/>
  <g transform="matrix(1, 0, 0, 1, -439.182104, -116.37792)"/>
  <g transform="matrix(1, 0, 0, 1, -439.182104, -116.37792)"/>
  <g transform="matrix(1, 0, 0, 1, -439.182104, -116.37792)"/>
  <g transform="matrix(1, 0, 0, 1, -439.182104, -116.37792)"/>
  <g transform="matrix(1, 0, 0, 1, -439.182104, -116.37792)"/>
  <g transform="matrix(1, 0, 0, 1, -439.182104, -116.37792)"/>
  <g transform="matrix(1, 0, 0, 1, -439.182104, -116.37792)"/>
  <g transform="matrix(1, 0, 0, 1, -439.182104, -116.37792)"/>
  <g transform="matrix(1, 0, 0, 1, -439.182104, -116.37792)"/>
  <line style="stroke: rgb(151, 204, 223); stroke-miterlimit: 1; stroke-width: 23px;" x1="159.136" y1="211.032" x2="202.817" y2="254.714" transform="matrix(0.707107, 0.707107, -0.707107, 0.707107, 217.672868, -59.762789)"/>
  <line style="stroke: rgb(151, 204, 223); stroke-miterlimit: 1; stroke-width: 23px;" x1="2.493" y1="116.505" x2="45.792" y2="159.804" transform="matrix(0.707107, 0.707107, -0.707107, 0.707107, 104.761158, 23.393191)"/>
  <line style="stroke: rgb(151, 204, 223); stroke-miterlimit: 1; stroke-width: 23px;" x1="-80.675" y1="183.224" x2="-37.337" y2="226.562" transform="matrix(0.707107, 0.707107, -0.707107, 0.707107, 127.59877, 101.735314)"/>
  <line style="stroke: rgb(151, 204, 223); stroke-miterlimit: 1; stroke-width: 23px;" x1="115.27" y1="138.826" x2="158.569" y2="182.125" transform="matrix(0.707107, 0.707107, -0.707107, 0.707107, 153.576108, -49.81452)"/>
</svg>